<svg xmlns="http://www.w3.org/2000/svg" width="1000" height="1000" viewBox="0 0 1000 1000"><title>月球基地搭建日</title><rect width="1000" height="1000" fill="white"/><g transform="translate(0 90)"><g data-element-id="moon-000" transform="translate(40 541) rotate(0 460.0 109.0) scale(9.2 2.18)"><ellipse cx="50" cy="50" rx="50" ry="50" data-region-id="fill" fill="#ffffff" stroke="#000000" stroke-width="3" stroke-linejoin="round" vector-effect="non-scaling-stroke"/></g><g data-element-id="moon-001" transform="translate(96 663) rotate(0 64.0 20.0) scale(1.28 0.4)"><ellipse cx="50" cy="50" rx="50" ry="50" data-region-id="fill" fill="#ffffff" stroke="#000000" stroke-width="3" stroke-linejoin="round" vector-effect="non-scaling-stroke"/></g><g data-element-id="moon-002" transform="translate(735 687) rotate(0 69.5 19.0) scale(1.39 0.38)"><ellipse cx="50" cy="50" rx="50" ry="50" data-region-id="fill" fill="#ffffff" stroke="#000000" stroke-width="3" stroke-linejoin="round" vector-effect="non-scaling-stroke"/></g><g data-element-id="moon-003" transform="translate(412 706) rotate(0 50.5 14.0) scale(1.01 0.28)"><ellipse cx="50" cy="50" rx="50" ry="50" data-region-id="fill" fill="#ffffff" stroke="#000000" stroke-width="3" stroke-linejoin="round" vector-effect="non-scaling-stroke"/></g><g data-element-id="moon-004" transform="translate(690 66) rotate(0 69.0 69.0) scale(1.38 1.38)"><ellipse cx="50" cy="50" rx="50" ry="50" data-region-id="fill" fill="#ffffff" stroke="#000000" stroke-width="3" stroke-linejoin="round" vector-effect="non-scaling-stroke"/></g><g data-element-id="moon-005" transform="translate(711 88) rotate(0 26.0 17.5) scale(0.52 0.35)"><ellipse cx="50" cy="50" rx="50" ry="50" data-region-id="fill" fill="#ffffff" stroke="#000000" stroke-width="3" stroke-linejoin="round" vector-effect="non-scaling-stroke"/></g><g data-element-id="moon-006" transform="translate(759 137) rotate(0 23.5 21.5) scale(0.47 0.43)"><ellipse cx="50" cy="50" rx="50" ry="50" data-region-id="fill" fill="#ffffff" stroke="#000000" stroke-width="3" stroke-linejoin="round" vector-effect="non-scaling-stroke"/></g><g data-element-id="moon-007" transform="translate(101 134) rotate(0 9.5 9.5) scale(0.19 0.19)"><ellipse cx="50" cy="50" rx="50" ry="50" data-region-id="fill" fill="#ffffff" stroke="#000000" stroke-width="3" stroke-linejoin="round" vector-effect="non-scaling-stroke"/></g><g data-element-id="moon-008" transform="translate(451 91) rotate(0 12.5 12.5) scale(0.25 0.25)"><ellipse cx="50" cy="50" rx="50" ry="50" data-region-id="fill" fill="#ffffff" stroke="#000000" stroke-width="3" stroke-linejoin="round" vector-effect="non-scaling-stroke"/></g><g data-element-id="moon-009" transform="translate(590 198) rotate(0 7.5 7.5) scale(0.15 0.15)"><ellipse cx="50" cy="50" rx="50" ry="50" data-region-id="fill" fill="#ffffff" stroke="#000000" stroke-width="3" stroke-linejoin="round" vector-effect="non-scaling-stroke"/></g><g data-element-id="moon-010" transform="translate(865 259) rotate(0 10.5 10.5) scale(0.21 0.21)"><ellipse cx="50" cy="50" rx="50" ry="50" data-region-id="fill" fill="#ffffff" stroke="#000000" stroke-width="3" stroke-linejoin="round" vector-effect="non-scaling-stroke"/></g><g data-element-id="moon-011" transform="translate(102 609) rotate(0 167.0 13.5) scale(3.34 0.27)"><rect width="100" height="100" data-region-id="fill" fill="#ffffff" stroke="#000000" stroke-width="3" stroke-linejoin="round" vector-effect="non-scaling-stroke"/></g><g data-element-id="moon-012" transform="translate(143 429) rotate(0 58.0 85.0) scale(1.16 1.7)"><polygon points="50,0 100,100 0,100" data-region-id="fill" fill="#ffffff" stroke="#000000" stroke-width="3" stroke-linejoin="round" vector-effect="non-scaling-stroke"/></g><g data-element-id="moon-013" transform="translate(287 429) rotate(0 58.0 85.0) scale(1.16 1.7)"><polygon points="50,0 100,100 0,100" data-region-id="fill" fill="#ffffff" stroke="#000000" stroke-width="3" stroke-linejoin="round" vector-effect="non-scaling-stroke"/></g><g data-element-id="moon-014" transform="translate(212 286) rotate(0 61.0 156.5) scale(1.22 3.13)"><rect width="100" height="100" data-region-id="fill" fill="#ffffff" stroke="#000000" stroke-width="3" stroke-linejoin="round" vector-effect="non-scaling-stroke"/></g><g data-element-id="moon-015" transform="translate(212 146) rotate(0 61.0 70.0) scale(1.22 1.4)"><polygon points="50,0 100,100 0,100" data-region-id="fill" fill="#ffffff" stroke="#000000" stroke-width="3" stroke-linejoin="round" vector-effect="non-scaling-stroke"/></g><g data-element-id="moon-016" transform="translate(212 544) rotate(0 61.0 15.0) scale(1.22 0.3)"><rect width="100" height="100" data-region-id="fill" fill="#ffffff" stroke="#000000" stroke-width="3" stroke-linejoin="round" vector-effect="non-scaling-stroke"/></g><g data-element-id="moon-017" transform="translate(224 599) rotate(0 49.0 5.0) scale(0.98 0.1)"><rect width="100" height="100" data-region-id="fill" fill="#ffffff" stroke="#000000" stroke-width="3" stroke-linejoin="round" vector-effect="non-scaling-stroke"/></g><g data-element-id="moon-018" transform="translate(235 325) rotate(0 38.0 38.0) scale(0.76 0.76)"><ellipse cx="50" cy="50" rx="50" ry="50" data-region-id="fill" fill="#ffffff" stroke="#000000" stroke-width="3" stroke-linejoin="round" vector-effect="non-scaling-stroke"/></g><g data-element-id="moon-019" transform="translate(247 337) rotate(0 26.0 26.0) scale(0.52 0.52)"><ellipse cx="50" cy="50" rx="50" ry="50" data-region-id="fill" fill="#ffffff" stroke="#000000" stroke-width="3" stroke-linejoin="round" vector-effect="non-scaling-stroke"/></g><g data-element-id="moon-020" transform="translate(235 422) rotate(0 38.0 38.0) scale(0.76 0.76)"><ellipse cx="50" cy="50" rx="50" ry="50" data-region-id="fill" fill="#ffffff" stroke="#000000" stroke-width="3" stroke-linejoin="round" vector-effect="non-scaling-stroke"/></g><g data-element-id="moon-021" transform="translate(247 434) rotate(0 26.0 26.0) scale(0.52 0.52)"><ellipse cx="50" cy="50" rx="50" ry="50" data-region-id="fill" fill="#ffffff" stroke="#000000" stroke-width="3" stroke-linejoin="round" vector-effect="non-scaling-stroke"/></g><g data-element-id="moon-022" transform="translate(655 497) rotate(0 97.0 25.5) scale(1.94 0.51)"><rect width="100" height="100" data-region-id="fill" fill="#ffffff" stroke="#000000" stroke-width="3" stroke-linejoin="round" vector-effect="non-scaling-stroke"/></g><g data-element-id="moon-023" transform="translate(440 350) rotate(0 146.0 138.0) scale(2.92 2.76)"><ellipse cx="50" cy="50" rx="50" ry="50" data-region-id="fill" fill="#ffffff" stroke="#000000" stroke-width="3" stroke-linejoin="round" vector-effect="non-scaling-stroke"/></g><g data-element-id="moon-024" transform="translate(440 494) rotate(0 146.0 53.0) scale(2.92 1.06)"><rect width="100" height="100" data-region-id="fill" fill="#ffffff" stroke="#000000" stroke-width="3" stroke-linejoin="round" vector-effect="non-scaling-stroke"/></g><g data-element-id="moon-025" transform="translate(430 600) rotate(0 156.0 12.0) scale(3.12 0.24)"><rect width="100" height="100" data-region-id="fill" fill="#ffffff" stroke="#000000" stroke-width="3" stroke-linejoin="round" vector-effect="non-scaling-stroke"/></g><g data-element-id="moon-026" transform="translate(560 490) rotate(0 31.0 55.0) scale(0.62 1.1)"><rect width="100" height="100" data-region-id="fill" fill="#ffffff" stroke="#000000" stroke-width="3" stroke-linejoin="round" vector-effect="non-scaling-stroke"/></g><g data-element-id="moon-027" transform="translate(571 507) rotate(0 20.0 21.0) scale(0.4 0.42)"><rect width="100" height="100" data-region-id="fill" fill="#ffffff" stroke="#000000" stroke-width="3" stroke-linejoin="round" vector-effect="non-scaling-stroke"/></g><g data-element-id="moon-028" transform="translate(474 451) rotate(0 28.0 28.0) scale(0.56 0.56)"><ellipse cx="50" cy="50" rx="50" ry="50" data-region-id="fill" fill="#ffffff" stroke="#000000" stroke-width="3" stroke-linejoin="round" vector-effect="non-scaling-stroke"/></g><g data-element-id="moon-029" transform="translate(632 451) rotate(0 28.0 28.0) scale(0.56 0.56)"><ellipse cx="50" cy="50" rx="50" ry="50" data-region-id="fill" fill="#ffffff" stroke="#000000" stroke-width="3" stroke-linejoin="round" vector-effect="non-scaling-stroke"/></g><g data-element-id="moon-030" transform="translate(570 292) rotate(0 8.5 30.0) scale(0.17 0.6)"><rect width="100" height="100" data-region-id="fill" fill="#ffffff" stroke="#000000" stroke-width="3" stroke-linejoin="round" vector-effect="non-scaling-stroke"/></g><g data-element-id="moon-031" transform="translate(556 265) rotate(0 23.0 23.0) scale(0.46 0.46)"><ellipse cx="50" cy="50" rx="50" ry="50" data-region-id="fill" fill="#ffffff" stroke="#000000" stroke-width="3" stroke-linejoin="round" vector-effect="non-scaling-stroke"/></g><g data-element-id="moon-032" transform="translate(811 422) rotate(0 11.0 84.0) scale(0.22 1.68)"><rect width="100" height="100" data-region-id="fill" fill="#ffffff" stroke="#000000" stroke-width="3" stroke-linejoin="round" vector-effect="non-scaling-stroke"/></g><g data-element-id="moon-033" transform="translate(751 322) rotate(0 82.0 57.5) scale(1.64 1.15)"><rect width="100" height="100" data-region-id="fill" fill="#ffffff" stroke="#000000" stroke-width="3" stroke-linejoin="round" vector-effect="non-scaling-stroke"/></g><g data-element-id="moon-034" transform="translate(762 333) rotate(0 20.0 21.0) scale(0.4 0.42)"><rect width="100" height="100" data-region-id="fill" fill="#ffffff" stroke="#000000" stroke-width="3" stroke-linejoin="round" vector-effect="non-scaling-stroke"/></g><g data-element-id="moon-035" transform="translate(762 384) rotate(0 20.0 21.0) scale(0.4 0.42)"><rect width="100" height="100" data-region-id="fill" fill="#ffffff" stroke="#000000" stroke-width="3" stroke-linejoin="round" vector-effect="non-scaling-stroke"/></g><g data-element-id="moon-036" transform="translate(813 333) rotate(0 20.0 21.0) scale(0.4 0.42)"><rect width="100" height="100" data-region-id="fill" fill="#ffffff" stroke="#000000" stroke-width="3" stroke-linejoin="round" vector-effect="non-scaling-stroke"/></g><g data-element-id="moon-037" transform="translate(813 384) rotate(0 20.0 21.0) scale(0.4 0.42)"><rect width="100" height="100" data-region-id="fill" fill="#ffffff" stroke="#000000" stroke-width="3" stroke-linejoin="round" vector-effect="non-scaling-stroke"/></g><g data-element-id="moon-038" transform="translate(864 333) rotate(0 20.0 21.0) scale(0.4 0.42)"><rect width="100" height="100" data-region-id="fill" fill="#ffffff" stroke="#000000" stroke-width="3" stroke-linejoin="round" vector-effect="non-scaling-stroke"/></g><g data-element-id="moon-039" transform="translate(864 384) rotate(0 20.0 21.0) scale(0.4 0.42)"><rect width="100" height="100" data-region-id="fill" fill="#ffffff" stroke="#000000" stroke-width="3" stroke-linejoin="round" vector-effect="non-scaling-stroke"/></g><g data-element-id="moon-040" transform="translate(478 642) rotate(0 67.0 24.5) scale(1.34 0.49)"><rect width="100" height="100" data-region-id="fill" fill="#ffffff" stroke="#000000" stroke-width="3" stroke-linejoin="round" vector-effect="non-scaling-stroke"/></g><g data-element-id="moon-041" transform="translate(503 610) rotate(0 34.5 16.0) scale(0.69 0.32)"><rect width="100" height="100" data-region-id="fill" fill="#ffffff" stroke="#000000" stroke-width="3" stroke-linejoin="round" vector-effect="non-scaling-stroke"/></g><g data-element-id="moon-042" transform="translate(560 576) rotate(0 6.0 17.0) scale(0.12 0.34)"><rect width="100" height="100" data-region-id="fill" fill="#ffffff" stroke="#000000" stroke-width="3" stroke-linejoin="round" vector-effect="non-scaling-stroke"/></g><g data-element-id="moon-043" transform="translate(550 560) rotate(0 16.0 16.0) scale(0.32 0.32)"><ellipse cx="50" cy="50" rx="50" ry="50" data-region-id="fill" fill="#ffffff" stroke="#000000" stroke-width="3" stroke-linejoin="round" vector-effect="non-scaling-stroke"/></g><g data-element-id="moon-044" transform="translate(474 674) rotate(0 23.0 23.0) scale(0.46 0.46)"><ellipse cx="50" cy="50" rx="50" ry="50" data-region-id="fill" fill="#ffffff" stroke="#000000" stroke-width="3" stroke-linejoin="round" vector-effect="non-scaling-stroke"/></g><g data-element-id="moon-045" transform="translate(487 687) rotate(0 10.0 10.0) scale(0.2 0.2)"><ellipse cx="50" cy="50" rx="50" ry="50" data-region-id="fill" fill="#ffffff" stroke="#000000" stroke-width="3" stroke-linejoin="round" vector-effect="non-scaling-stroke"/></g><g data-element-id="moon-046" transform="translate(565 674) rotate(0 23.0 23.0) scale(0.46 0.46)"><ellipse cx="50" cy="50" rx="50" ry="50" data-region-id="fill" fill="#ffffff" stroke="#000000" stroke-width="3" stroke-linejoin="round" vector-effect="non-scaling-stroke"/></g><g data-element-id="moon-047" transform="translate(578 687) rotate(0 10.0 10.0) scale(0.2 0.2)"><ellipse cx="50" cy="50" rx="50" ry="50" data-region-id="fill" fill="#ffffff" stroke="#000000" stroke-width="3" stroke-linejoin="round" vector-effect="non-scaling-stroke"/></g></g></svg>