<svg xmlns="http://www.w3.org/2000/svg" width="1000" height="1000" viewBox="0 0 1000 1000"><title>小火车驶过山谷桥</title><rect width="1000" height="1000" fill="white"/><g transform="translate(0 90)"><g data-element-id="train-000" transform="translate(45 92) rotate(0 195.0 197.5) scale(3.9 3.95)"><polygon points="50,0 100,100 0,100" data-region-id="fill" fill="#ffffff" stroke="#000000" stroke-width="3" stroke-linejoin="round" vector-effect="non-scaling-stroke"/></g><g data-element-id="train-001" transform="translate(421 69) rotate(0 219.0 209.5) scale(4.38 4.19)"><polygon points="50,0 100,100 0,100" data-region-id="fill" fill="#ffffff" stroke="#000000" stroke-width="3" stroke-linejoin="round" vector-effect="non-scaling-stroke"/></g><g data-element-id="train-002" transform="translate(171 92) rotate(0 69.0 70.0) scale(1.38 1.4)"><polygon points="50,0 100,100 0,100" data-region-id="fill" fill="#ffffff" stroke="#000000" stroke-width="3" stroke-linejoin="round" vector-effect="non-scaling-stroke"/></g><g data-element-id="train-003" transform="translate(567 69) rotate(0 73.0 70.0) scale(1.46 1.4)"><polygon points="50,0 100,100 0,100" data-region-id="fill" fill="#ffffff" stroke="#000000" stroke-width="3" stroke-linejoin="round" vector-effect="non-scaling-stroke"/></g><g data-element-id="train-004" transform="translate(80 70) rotate(0 37.0 37.0) scale(0.74 0.74)"><ellipse cx="50" cy="50" rx="50" ry="50" data-region-id="fill" fill="#ffffff" stroke="#000000" stroke-width="3" stroke-linejoin="round" vector-effect="non-scaling-stroke"/></g><g data-element-id="train-005" transform="translate(40 548) rotate(0 460.0 103.5) scale(9.2 2.07)"><rect width="100" height="100" data-region-id="fill" fill="#ffffff" stroke="#000000" stroke-width="3" stroke-linejoin="round" vector-effect="non-scaling-stroke"/></g><g data-element-id="train-006" transform="translate(78 664) rotate(0 60.0 8.5) scale(1.2 0.17)"><ellipse cx="50" cy="50" rx="50" ry="50" data-region-id="fill" fill="#ffffff" stroke="#000000" stroke-width="3" stroke-linejoin="round" vector-effect="non-scaling-stroke"/></g><g data-element-id="train-007" transform="translate(365 724) rotate(0 77.5 8.5) scale(1.55 0.17)"><ellipse cx="50" cy="50" rx="50" ry="50" data-region-id="fill" fill="#ffffff" stroke="#000000" stroke-width="3" stroke-linejoin="round" vector-effect="non-scaling-stroke"/></g><g data-element-id="train-008" transform="translate(692 694) rotate(0 73.5 8.5) scale(1.47 0.17)"><ellipse cx="50" cy="50" rx="50" ry="50" data-region-id="fill" fill="#ffffff" stroke="#000000" stroke-width="3" stroke-linejoin="round" vector-effect="non-scaling-stroke"/></g><g data-element-id="train-009" transform="translate(125 550) rotate(0 41.5 89.5) scale(0.83 1.79)"><rect width="100" height="100" data-region-id="fill" fill="#ffffff" stroke="#000000" stroke-width="3" stroke-linejoin="round" vector-effect="non-scaling-stroke"/></g><g data-element-id="train-010" transform="translate(112 714) rotate(0 54.5 13.0) scale(1.09 0.26)"><rect width="100" height="100" data-region-id="fill" fill="#ffffff" stroke="#000000" stroke-width="3" stroke-linejoin="round" vector-effect="non-scaling-stroke"/></g><g data-element-id="train-011" transform="translate(420 550) rotate(0 41.5 89.5) scale(0.83 1.79)"><rect width="100" height="100" data-region-id="fill" fill="#ffffff" stroke="#000000" stroke-width="3" stroke-linejoin="round" vector-effect="non-scaling-stroke"/></g><g data-element-id="train-012" transform="translate(407 714) rotate(0 54.5 13.0) scale(1.09 0.26)"><rect width="100" height="100" data-region-id="fill" fill="#ffffff" stroke="#000000" stroke-width="3" stroke-linejoin="round" vector-effect="non-scaling-stroke"/></g><g data-element-id="train-013" transform="translate(765 550) rotate(0 41.5 89.5) scale(0.83 1.79)"><rect width="100" height="100" data-region-id="fill" fill="#ffffff" stroke="#000000" stroke-width="3" stroke-linejoin="round" vector-effect="non-scaling-stroke"/></g><g data-element-id="train-014" transform="translate(752 714) rotate(0 54.5 13.0) scale(1.09 0.26)"><rect width="100" height="100" data-region-id="fill" fill="#ffffff" stroke="#000000" stroke-width="3" stroke-linejoin="round" vector-effect="non-scaling-stroke"/></g><g data-element-id="train-015" transform="translate(40 536) rotate(0 460.0 24.0) scale(9.2 0.48)"><rect width="100" height="100" data-region-id="fill" fill="#ffffff" stroke="#000000" stroke-width="3" stroke-linejoin="round" vector-effect="non-scaling-stroke"/></g><g data-element-id="train-016" transform="translate(40 513) rotate(0 460.0 11.5) scale(9.2 0.23)"><rect width="100" height="100" data-region-id="fill" fill="#ffffff" stroke="#000000" stroke-width="3" stroke-linejoin="round" vector-effect="non-scaling-stroke"/></g><g data-element-id="train-017" transform="translate(282 457) rotate(0 30.5 10.5) scale(0.61 0.21)"><rect width="100" height="100" data-region-id="fill" fill="#ffffff" stroke="#000000" stroke-width="3" stroke-linejoin="round" vector-effect="non-scaling-stroke"/></g><g data-element-id="train-018" transform="translate(539 457) rotate(0 32.0 10.5) scale(0.64 0.21)"><rect width="100" height="100" data-region-id="fill" fill="#ffffff" stroke="#000000" stroke-width="3" stroke-linejoin="round" vector-effect="non-scaling-stroke"/></g><g data-element-id="train-019" transform="translate(86 357) rotate(0 107.0 57.5) scale(2.14 1.15)"><rect width="100" height="100" data-region-id="fill" fill="#ffffff" stroke="#000000" stroke-width="3" stroke-linejoin="round" vector-effect="non-scaling-stroke"/></g><g data-element-id="train-020" transform="translate(78 341) rotate(0 115.0 11.0) scale(2.3 0.22)"><rect width="100" height="100" data-region-id="fill" fill="#ffffff" stroke="#000000" stroke-width="3" stroke-linejoin="round" vector-effect="non-scaling-stroke"/></g><g data-element-id="train-021" transform="translate(86 450) rotate(0 107.0 17.5) scale(2.14 0.35)"><rect width="100" height="100" data-region-id="fill" fill="#ffffff" stroke="#000000" stroke-width="3" stroke-linejoin="round" vector-effect="non-scaling-stroke"/></g><g data-element-id="train-022" transform="translate(108 375) rotate(0 36.5 27.0) scale(0.73 0.54)"><rect width="100" height="100" data-region-id="fill" fill="#ffffff" stroke="#000000" stroke-width="3" stroke-linejoin="round" vector-effect="non-scaling-stroke"/></g><g data-element-id="train-023" transform="translate(205 375) rotate(0 36.5 27.0) scale(0.73 0.54)"><rect width="100" height="100" data-region-id="fill" fill="#ffffff" stroke="#000000" stroke-width="3" stroke-linejoin="round" vector-effect="non-scaling-stroke"/></g><g data-element-id="train-024" transform="translate(98 459) rotate(0 27.0 27.0) scale(0.54 0.54)"><ellipse cx="50" cy="50" rx="50" ry="50" data-region-id="fill" fill="#ffffff" stroke="#000000" stroke-width="3" stroke-linejoin="round" vector-effect="non-scaling-stroke"/></g><g data-element-id="train-025" transform="translate(114 475) rotate(0 11.0 11.0) scale(0.22 0.22)"><ellipse cx="50" cy="50" rx="50" ry="50" data-region-id="fill" fill="#ffffff" stroke="#000000" stroke-width="3" stroke-linejoin="round" vector-effect="non-scaling-stroke"/></g><g data-element-id="train-026" transform="translate(204 459) rotate(0 27.0 27.0) scale(0.54 0.54)"><ellipse cx="50" cy="50" rx="50" ry="50" data-region-id="fill" fill="#ffffff" stroke="#000000" stroke-width="3" stroke-linejoin="round" vector-effect="non-scaling-stroke"/></g><g data-element-id="train-027" transform="translate(220 475) rotate(0 11.0 11.0) scale(0.22 0.22)"><ellipse cx="50" cy="50" rx="50" ry="50" data-region-id="fill" fill="#ffffff" stroke="#000000" stroke-width="3" stroke-linejoin="round" vector-effect="non-scaling-stroke"/></g><g data-element-id="train-028" transform="translate(335 357) rotate(0 107.0 57.5) scale(2.14 1.15)"><rect width="100" height="100" data-region-id="fill" fill="#ffffff" stroke="#000000" stroke-width="3" stroke-linejoin="round" vector-effect="non-scaling-stroke"/></g><g data-element-id="train-029" transform="translate(327 341) rotate(0 115.0 11.0) scale(2.3 0.22)"><rect width="100" height="100" data-region-id="fill" fill="#ffffff" stroke="#000000" stroke-width="3" stroke-linejoin="round" vector-effect="non-scaling-stroke"/></g><g data-element-id="train-030" transform="translate(335 450) rotate(0 107.0 17.5) scale(2.14 0.35)"><rect width="100" height="100" data-region-id="fill" fill="#ffffff" stroke="#000000" stroke-width="3" stroke-linejoin="round" vector-effect="non-scaling-stroke"/></g><g data-element-id="train-031" transform="translate(357 375) rotate(0 36.5 27.0) scale(0.73 0.54)"><rect width="100" height="100" data-region-id="fill" fill="#ffffff" stroke="#000000" stroke-width="3" stroke-linejoin="round" vector-effect="non-scaling-stroke"/></g><g data-element-id="train-032" transform="translate(454 375) rotate(0 36.5 27.0) scale(0.73 0.54)"><rect width="100" height="100" data-region-id="fill" fill="#ffffff" stroke="#000000" stroke-width="3" stroke-linejoin="round" vector-effect="non-scaling-stroke"/></g><g data-element-id="train-033" transform="translate(347 459) rotate(0 27.0 27.0) scale(0.54 0.54)"><ellipse cx="50" cy="50" rx="50" ry="50" data-region-id="fill" fill="#ffffff" stroke="#000000" stroke-width="3" stroke-linejoin="round" vector-effect="non-scaling-stroke"/></g><g data-element-id="train-034" transform="translate(363 475) rotate(0 11.0 11.0) scale(0.22 0.22)"><ellipse cx="50" cy="50" rx="50" ry="50" data-region-id="fill" fill="#ffffff" stroke="#000000" stroke-width="3" stroke-linejoin="round" vector-effect="non-scaling-stroke"/></g><g data-element-id="train-035" transform="translate(453 459) rotate(0 27.0 27.0) scale(0.54 0.54)"><ellipse cx="50" cy="50" rx="50" ry="50" data-region-id="fill" fill="#ffffff" stroke="#000000" stroke-width="3" stroke-linejoin="round" vector-effect="non-scaling-stroke"/></g><g data-element-id="train-036" transform="translate(469 475) rotate(0 11.0 11.0) scale(0.22 0.22)"><ellipse cx="50" cy="50" rx="50" ry="50" data-region-id="fill" fill="#ffffff" stroke="#000000" stroke-width="3" stroke-linejoin="round" vector-effect="non-scaling-stroke"/></g><g data-element-id="train-037" transform="translate(583 320) rotate(0 59.5 82.5) scale(1.19 1.65)"><rect width="100" height="100" data-region-id="fill" fill="#ffffff" stroke="#000000" stroke-width="3" stroke-linejoin="round" vector-effect="non-scaling-stroke"/></g><g data-element-id="train-038" transform="translate(570 302) rotate(0 72.5 12.0) scale(1.45 0.24)"><rect width="100" height="100" data-region-id="fill" fill="#ffffff" stroke="#000000" stroke-width="3" stroke-linejoin="round" vector-effect="non-scaling-stroke"/></g><g data-element-id="train-039" transform="translate(608 343) rotate(0 32.5 29.5) scale(0.65 0.59)"><rect width="100" height="100" data-region-id="fill" fill="#ffffff" stroke="#000000" stroke-width="3" stroke-linejoin="round" vector-effect="non-scaling-stroke"/></g><g data-element-id="train-040" transform="translate(700 394) rotate(0 80.5 45.5) scale(1.61 0.91)"><rect width="100" height="100" data-region-id="fill" fill="#ffffff" stroke="#000000" stroke-width="3" stroke-linejoin="round" vector-effect="non-scaling-stroke"/></g><g data-element-id="train-041" transform="translate(792 337) rotate(0 17.0 28.5) scale(0.34 0.57)"><rect width="100" height="100" data-region-id="fill" fill="#ffffff" stroke="#000000" stroke-width="3" stroke-linejoin="round" vector-effect="non-scaling-stroke"/></g><g data-element-id="train-042" transform="translate(780 322) rotate(0 29.0 10.0) scale(0.58 0.2)"><rect width="100" height="100" data-region-id="fill" fill="#ffffff" stroke="#000000" stroke-width="3" stroke-linejoin="round" vector-effect="non-scaling-stroke"/></g><g data-element-id="train-043" transform="translate(575 461) rotate(0 157.5 13.0) scale(3.15 0.26)"><rect width="100" height="100" data-region-id="fill" fill="#ffffff" stroke="#000000" stroke-width="3" stroke-linejoin="round" vector-effect="non-scaling-stroke"/></g><g data-element-id="train-044" transform="translate(853 435) rotate(90 31.5 27.0) scale(0.63 0.54)"><polygon points="50,0 100,100 0,100" data-region-id="fill" fill="#ffffff" stroke="#000000" stroke-width="3" stroke-linejoin="round" vector-effect="non-scaling-stroke"/></g><g data-element-id="train-045" transform="translate(591 449) rotate(0 32.0 32.0) scale(0.64 0.64)"><ellipse cx="50" cy="50" rx="50" ry="50" data-region-id="fill" fill="#ffffff" stroke="#000000" stroke-width="3" stroke-linejoin="round" vector-effect="non-scaling-stroke"/></g><g data-element-id="train-046" transform="translate(609 467) rotate(0 14.0 14.0) scale(0.28 0.28)"><ellipse cx="50" cy="50" rx="50" ry="50" data-region-id="fill" fill="#ffffff" stroke="#000000" stroke-width="3" stroke-linejoin="round" vector-effect="non-scaling-stroke"/></g><g data-element-id="train-047" transform="translate(702 449) rotate(0 32.0 32.0) scale(0.64 0.64)"><ellipse cx="50" cy="50" rx="50" ry="50" data-region-id="fill" fill="#ffffff" stroke="#000000" stroke-width="3" stroke-linejoin="round" vector-effect="non-scaling-stroke"/></g><g data-element-id="train-048" transform="translate(720 467) rotate(0 14.0 14.0) scale(0.28 0.28)"><ellipse cx="50" cy="50" rx="50" ry="50" data-region-id="fill" fill="#ffffff" stroke="#000000" stroke-width="3" stroke-linejoin="round" vector-effect="non-scaling-stroke"/></g><g data-element-id="train-049" transform="translate(797 449) rotate(0 32.0 32.0) scale(0.64 0.64)"><ellipse cx="50" cy="50" rx="50" ry="50" data-region-id="fill" fill="#ffffff" stroke="#000000" stroke-width="3" stroke-linejoin="round" vector-effect="non-scaling-stroke"/></g><g data-element-id="train-050" transform="translate(815 467) rotate(0 14.0 14.0) scale(0.28 0.28)"><ellipse cx="50" cy="50" rx="50" ry="50" data-region-id="fill" fill="#ffffff" stroke="#000000" stroke-width="3" stroke-linejoin="round" vector-effect="non-scaling-stroke"/></g><g data-element-id="train-051" transform="translate(798 265) rotate(0 15.5 17.0) scale(0.31 0.34)"><ellipse cx="50" cy="50" rx="50" ry="50" data-region-id="fill" fill="#ffffff" stroke="#000000" stroke-width="3" stroke-linejoin="round" vector-effect="non-scaling-stroke"/></g><g data-element-id="train-052" transform="translate(820 205) rotate(0 23.5 20.0) scale(0.47 0.4)"><ellipse cx="50" cy="50" rx="50" ry="50" data-region-id="fill" fill="#ffffff" stroke="#000000" stroke-width="3" stroke-linejoin="round" vector-effect="non-scaling-stroke"/></g><g data-element-id="train-053" transform="translate(843 134) rotate(0 31.5 24.0) scale(0.63 0.48)"><ellipse cx="50" cy="50" rx="50" ry="50" data-region-id="fill" fill="#ffffff" stroke="#000000" stroke-width="3" stroke-linejoin="round" vector-effect="non-scaling-stroke"/></g></g></svg>